<svg id="Layer_1" data-name="Layer 1" xmlns="http://www.w3.org/2000/svg" xmlns:xlink="http://www.w3.org/1999/xlink" viewBox="0 0 70 70"><defs><style>.cls-1,.cls-4{fill:none;}.cls-2{fill:#2e3191;}.cls-3{clip-path:url(#clip-path);}.cls-4{stroke:#2e3191;stroke-linecap:round;stroke-linejoin:round;stroke-width:2px;}</style><clipPath id="clip-path"><rect class="cls-1" x="-442.01949" y="166.50672" width="844.03897" height="405.90522"/></clipPath></defs><path class="cls-2" d="M35,3A32,32,0,1,1,3,35,32.03623,32.03623,0,0,1,35,3m0-3A35,35,0,1,0,70,35,35,35,0,0,0,35,0Z"/><g class="cls-3"><image width="1920" height="6970" transform="translate(-608.67987 -2218.7996) scale(0.60086)" xlink:href="../../../Downloads/screencapture-warlbor-2021-12-30-14_25_12.png"/></g><path class="cls-4" d="M48.64925,26.27468C48.43667,22.18757,43.51036,17.5,43.51036,17.5c.458,1.88451-.535,2.7533-2.47381,5.28109a6.02123,6.02123,0,0,0-.93878,5.34249c1.85611,4.42234,8.76544,2.2383,8.55163-1.84882Z"/><path class="cls-4" d="M42.61464,30.53611c.00143.164.00143.32382.00428.495.01569,1.15692.05849,2.5036.14694,3.94157.05422,1.44223.21971,2.963.33526,4.49226.27107,3.0514.68481,6.08286,1.02576,8.3509.08845.56777.16834,1.08845.24111,1.54784a1.57257,1.57257,0,0,0,.52644,1.14269,3.56681,3.56681,0,0,0,1.09279.622,5.07364,5.07364,0,0,0,.632.184,3.593,3.593,0,0,0,2.46954-.36663,4.99074,4.99074,0,0,0,.54641-.35949,3.50637,3.50637,0,0,0,.84033-.91011,1.546,1.546,0,0,0,.137-1.24107c-.077-.45935-.16692-.97858-.26394-1.54358-.398-2.26112-.97013-5.26686-1.682-8.25427-.37664-1.49078-.70477-2.98863-1.1128-4.37814-.37236-1.39658-.7618-2.69045-1.11562-3.79746-.05136-.164-.10129-.31528-.15122-.47219"/><path class="cls-4" d="M39.74014,27.94434a17.37389,17.37389,0,0,0-2.79481-.60116C27.39084,25.91951,18.738,30.31469,17.6195,37.15944c-1.11706,6.84461,5.72235,13.54815,15.2779,14.97167,3.70644.55208,7.844.80458,9.82-1.6291.76325-.93871-.04137-1.632-.81886-2.57777-1.32821-1.61343-2.99174-3.64774-1.46091-5.72763a2.86936,2.86936,0,0,1,2.81339-1.21824"/><path class="cls-4" d="M49.69471,43.38505a3.523,3.523,0,0,0,1.23553-.331,2.47027,2.47027,0,0,0,.73506-.50619,2.99346,2.99346,0,0,0,.81039-1.8542c.29123-3.24466-2.05727-6.79265-5.794-9.44987"/><path class="cls-4" d="M28.27264,36.40365c0,1.331-1.48374,2.41093-3.31413,2.41093s-3.31413-1.07993-3.31413-2.41093,1.48373-2.41093,3.31413-2.41093,3.31413,1.07993,3.31413,2.41093"/><path class="cls-4" d="M32.85167,44.20447c0,1.331-1.48374,2.41092-3.31413,2.41092s-3.31413-1.07992-3.31413-2.41092c0-1.33238,1.48373-2.4123,3.31413-2.4123s3.31413,1.07992,3.31413,2.4123"/><path class="cls-4" d="M36.80677,32.03419c0,1.33237-1.48373,2.41229-3.31413,2.41229-1.829,0-3.31276-1.07992-3.31276-2.4123s1.48374-2.41229,3.31276-2.41229c1.8304,0,3.31413,1.07992,3.31413,2.41229"/><path class="cls-4" d="M43.75247,29.99216a12.689,12.689,0,0,0,.37867-4.84825l-.40268-2.094"/><path class="cls-4" d="M44.17846,27.68875a19.105,19.105,0,0,0,2.22945-2.17507"/></svg>