<svg id="Layer_1" data-name="Layer 1" xmlns="http://www.w3.org/2000/svg" xmlns:xlink="http://www.w3.org/1999/xlink" viewBox="0 0 70 70"><defs><style>.cls-1{fill:none;}.cls-2,.cls-4{fill:#2e3191;}.cls-3{clip-path:url(#clip-path);}.cls-4{stroke:#2e3191;stroke-linejoin:round;}</style><clipPath id="clip-path"><rect class="cls-1" x="-262.01949" y="166.50672" width="844.03897" height="405.90522"/></clipPath></defs><path class="cls-2" d="M35,3A32,32,0,1,1,3,35,32.03623,32.03623,0,0,1,35,3m0-3A35,35,0,1,0,70,35,35,35,0,0,0,35,0Z"/><g class="cls-3"><image width="1920" height="6970" transform="translate(-428.67987 -2218.7996) scale(0.60086)" xlink:href="../../../Downloads/screencapture-warlbor-2021-12-30-14_25_12.png"/></g><path class="cls-4" d="M52.44585,37.63293c-.55833-1.83014-5.52857-1.1103-6.87012-.43619a6.81831,6.81831,0,0,0-.30345-.81439,37.18035,37.18035,0,0,0,3.18917-3.215c1.939-2.42188-.30345-4.15456-1.42922-3.4254a.61239.61239,0,0,0-.223.83423.60578.60578,0,0,0,.82991.2242.48447.48447,0,0,1,.32468.25317c.16082.305,0,.79917-.443,1.35123A33.27531,33.27531,0,0,1,44.69271,35.269c-.69183-1.14689-2.558-3.69382-3.86887-3.61148-1.65981.10371-2.69154,4.11787-2.83113,5.79554-2.0361-.08845-6.46929,1.57086-6.74855,3.17225-.35807,2.0284,2.555,3.11126,4.55173,3.56267A32.96093,32.96093,0,0,1,32.8252,46.86c-.707.53988-1.68715,1.04014-2.35168.37212a.60234.60234,0,0,0-.836.02288.61149.61149,0,0,0-.01973.84032c1.12273,1.13162,2.65817.71375,3.94465-.26232a27.30815,27.30815,0,0,0,2.14532-1.85454c-.94068,2.96485-.264,6.06377.886,6.4663,1.34424.46059,4.16022-2.05889,5.59227-3.828,2.94948,2.76655,7.0519,3.14175,7.90756,2.22971.73129-.78086.67062-3.83719-1.51719-6.46045,3.21041-1.85454,4.17847-5.74361,3.86887-6.75327ZM46.2434,38.243c1.99058-.71375,4.685-.6619,5.04306-.23182a7.05787,7.05787,0,0,1-3.59882,5.475,6.85051,6.85051,0,0,0-.91034-.668,5.01167,5.01167,0,0,0-1.40495-3.69994,1.77373,1.77373,0,0,1,.87089-.88456Zm-3.79,6.323c-1.33515.12506-1.75086.64054-2.31832.20742a2.422,2.422,0,0,1-.91034-2.29682c.21241-.6863.12137-1.42749.54011-1.76912s1.0226-.12506,1.59915,0a5.78174,5.78174,0,0,0,.3793,2.08943.60717.60717,0,0,0,1.14095-.41482,4.48591,4.48591,0,0,1-.30344-1.77525c.71307-.305,1.12878-.83879,1.68409-.726.971.19826,1.92381,3.24849.704,4.47472-.5917.59782-1.12272.0793-2.51555.21046ZM40.88767,32.88042c.795.15862,3.47744,3.398,3.64131,5.25558a4.2825,4.2825,0,0,0-.30345.51548,2.71892,2.71892,0,0,0-1.65981.57038c-.64635.41483-.63419.36908-1.17128.241a2.87182,2.87182,0,0,0-1.97236.03356,4.08263,4.08263,0,0,1-.25186-1.156c-.12441-2.08025,1.15-5.19154,1.71749-5.45977Zm-8.454,7.96126c.25489-.66494,3.68379-2.309,5.55886-2.1565a5.45642,5.45642,0,0,0,.49763,1.71422,8.63426,8.63426,0,0,0-.41874,1.70813,2.76082,2.76082,0,0,0-.08193,1.19874,16.58418,16.58418,0,0,1-2.42754-.44533C33.1101,42.26,32.3515,41.3114,32.43342,40.84168Zm4.5727,10.41354c-.3975-.51244-1.232-3.35527.64938-6.76849,0-.02135.51584.061.75253.07016a3.68233,3.68233,0,0,0,.99226,1.18655c.95583.7351,1.70837.33858,2.58838.13421a3.12772,3.12772,0,0,1-.65544,1.83014c-2.00879,2.58356-3.82339,3.462-4.32723,3.54741Zm12.20449-1.278c-.60688.23792-3.64131.28367-6.37219-2.41578a4.33483,4.33483,0,0,0,.37627-1.78134c.86483.061,1.74177.32942,2.63083-.56124a3.14318,3.14318,0,0,0,.71-1.09809c2.21511,1.62579,3.11633,4.77379,2.6551,5.85645Z"/><path class="cls-4" d="M30.75882,42.93106a.60981.60981,0,0,0-.25034-.39956.60073.60073,0,0,0-.45972-.10066A9.52359,9.52359,0,0,1,21.592,39.66121a9.67958,9.67958,0,0,1,0-13.78061c5.32232-5.34694,17.721-8.7757,20.08175-6.4054,1.235,1.2445.94068,5.49023-.71615,10.29135a.60732.60732,0,1,0,1.147.39959c1.414-4.10577,2.37293-9.596.42484-11.55126-3.07388-3.11735-16.122.71374-21.78413,6.40539a10.87829,10.87829,0,0,0,0,15.50163,10.71187,10.71187,0,0,0,9.51594,3.1143.60848.60848,0,0,0,.39447-.2486.61557.61557,0,0,0,.10316-.456Z"/><path class="cls-4" d="M39.759,21.384a.60452.60452,0,0,0-.85267.08846c-.07889.0976-7.90755,9.70882-13.42408,14.03126a.61076.61076,0,0,0-.12441.87086.604.604,0,0,0,.87088.09c5.61984-4.40444,13.28775-13.82044,13.61246-14.22024a.61253.61253,0,0,0-.08193-.86015Z"/><path class="cls-4" d="M26.55316,26.469a.61165.61165,0,0,0,.09407-.8739.60573.60573,0,0,0-.87085-.06253c-5.113,4.27052-4.46977,9.21766-4.43948,9.42537a.61227.61227,0,0,0,1.097.28365.62417.62417,0,0,0,.11682-.45754c-.03641-.18-.56742-4.4837,4.00252-8.315Z"/><path class="cls-4" d="M26.62,30.60519a.60388.60388,0,0,0,.84964-.122,44.21453,44.21453,0,0,1,6.44521-6.47567.60887.60887,0,1,0-.75861-.95169,44.14285,44.14285,0,0,0-6.65767,6.71071.61266.61266,0,0,0,.12138.8388Z"/><path class="cls-4" d="M35.34706,31.08074A10.95845,10.95845,0,0,1,31.93639,34.863a.61176.61176,0,0,0-.16841.84645.6047.6047,0,0,0,.84206.16928,12.08932,12.08932,0,0,0,3.82642-4.27052.60792.60792,0,1,0-1.08938-.53991Z"/></svg>