<svg id="Layer_1" data-name="Layer 1" xmlns="http://www.w3.org/2000/svg" xmlns:xlink="http://www.w3.org/1999/xlink" viewBox="0 0 70 70"><defs><style>.cls-1{fill:none;}.cls-2,.cls-4{fill:#2e3191;}.cls-3{clip-path:url(#clip-path);}.cls-4{stroke:#2e3191;stroke-miterlimit:10;}</style><clipPath id="clip-path"><rect class="cls-1" x="-262.01949" y="87.50017" width="844.03897" height="405.90522"/></clipPath></defs><path class="cls-2" d="M35,3A32,32,0,1,1,3,35,32.03623,32.03623,0,0,1,35,3m0-3A35,35,0,1,0,70,35,35,35,0,0,0,35,0Z"/><g class="cls-3"><image width="1920" height="6970" transform="translate(-428.67987 -2297.80616) scale(0.60086)" xlink:href="../../../Downloads/screencapture-warlbor-2021-12-30-14_25_12.png"/></g><path class="cls-4" d="M24.99952,17.5a6.8854,6.8854,0,0,0-6.87537,6.87518v1.25a1.88059,1.88059,0,0,0,1.25,1.7578v6.32638L17.535,48.11092v.00469A3.85493,3.85493,0,0,0,21.30859,52.5H32.44166a3.76161,3.76161,0,0,0,2.56415-1.01248A7.44548,7.44548,0,0,0,38.74966,52.5h6.25015A7.51,7.51,0,0,0,52.5,45V41.875A1.8846,1.8846,0,0,0,50.625,40h-.05a4.38331,4.38331,0,0,0-4.3249-3.75h-1.5094A1.78,1.78,0,0,0,43.125,35H40.62491a1.7816,1.7816,0,0,0-1.61568,1.25h-1.5094a4.34279,4.34279,0,0,0-2.68131.92812l-.44377-3.46875V27.383a1.8806,1.8806,0,0,0,1.25-1.75779v-1.25a6.8854,6.8854,0,0,0-6.87537-6.87518Zm0,1.25h3.75009a5.6153,5.6153,0,0,1,5.62494,5.62478v1.25a.61511.61511,0,0,1-.625.625H19.99919a.61511.61511,0,0,1-.625-.625v-1.25A5.6153,5.6153,0,0,1,24.99912,18.75Zm1.875,1.25a.625.625,0,1,0,.625.625A.62483.62483,0,0,0,26.87456,20Zm-3.75009,1.25a.625.625,0,1,0,.625.625A.62483.62483,0,0,0,23.12447,21.25Zm7.50019,0a.625.625,0,1,0,.625.625A.62484.62484,0,0,0,30.62466,21.25ZM20.62441,27.5H33.12472v5.62478H20.62441Zm-.075,6.87518H33.19812l.51878,4.06239A4.32792,4.32792,0,0,0,33.17312,40h-.05a1.88459,1.88459,0,0,0-1.87505,1.875V45a7.48381,7.48381,0,0,0,2.69227,5.74839,2.48805,2.48805,0,0,1-1.5.50156H21.30723a2.583,2.583,0,0,1-2.53443-2.97188l1.77661-13.90316Zm20.0757,1.875h2.50006a.60953.60953,0,0,1,.625.625.62483.62483,0,0,0,.625.625h1.87505a3.07112,3.07112,0,0,1,3.00007,2.5H34.50156a3.06856,3.06856,0,0,1,3.00007-2.5h1.87505a.62483.62483,0,0,0,.625-.625.60953.60953,0,0,1,.625-.625Zm-7.50019,5H50.62536a.61511.61511,0,0,1,.625.625v3.125a6.24039,6.24039,0,0,1-6.25015,6.25H38.75006a6.24039,6.24039,0,0,1-6.25015-6.25v-3.125A.61511.61511,0,0,1,33.12492,41.25014Z"/></svg>