<svg id="Layer_1" data-name="Layer 1" xmlns="http://www.w3.org/2000/svg" xmlns:xlink="http://www.w3.org/1999/xlink" viewBox="0 0 70 70"><defs><style>.cls-1{fill:none;}.cls-2,.cls-4{fill:#2e3191;}.cls-3{clip-path:url(#clip-path);}.cls-4{stroke:#2e3191;stroke-miterlimit:10;fill-rule:evenodd;}</style><clipPath id="clip-path"><rect class="cls-1" x="-442.01949" y="87.50017" width="844.03897" height="405.90522"/></clipPath></defs><path class="cls-2" d="M35,3A32,32,0,1,1,3,35,32.03623,32.03623,0,0,1,35,3m0-3A35,35,0,1,0,70,35,35,35,0,0,0,35,0Z"/><g class="cls-3"><image width="1920" height="6970" transform="translate(-608.67987 -2297.80616) scale(0.60086)" xlink:href="../../../Downloads/screencapture-warlbor-2021-12-30-14_25_12.png"/></g><path class="cls-4" d="M24.34773,41.087a2.282,2.282,0,0,0-2.28258-2.28261H19.78258A2.282,2.282,0,0,0,17.5,41.087v9.13043A2.282,2.282,0,0,0,19.78258,52.5h2.28257a2.282,2.282,0,0,0,2.28258-2.28261Zm-1.52172,0a.76065.76065,0,0,0-.76086-.76087H19.78258a.76065.76065,0,0,0-.76086.76087v9.13043a.76065.76065,0,0,0,.76086.76087h2.28257a.76065.76065,0,0,0,.76086-.76087Z"/><path class="cls-4" d="M23.46148,50.20619s9.813,1.63588,12.82626,2.138a3.806,3.806,0,0,0,2.10187-.24728c2.27688-.95872,8.7612-3.68831,11.90008-5.0103A3.61124,3.61124,0,0,0,52.5,43.75786a2.67574,2.67574,0,0,0-2.67252-2.67257H39.5655a.76087.76087,0,0,0,0,1.52174h10.262a1.15834,1.15834,0,0,1,.81413.33669,1.14378,1.14378,0,0,1,.33668.81414A2.088,2.088,0,0,1,49.7,45.68285c-3.13853,1.32009-9.6231,4.05162-11.90008,5.01029a2.28924,2.28924,0,0,1-1.2611.14837c-3.013-.50215-12.82626-2.138-12.82626-2.138a.7607.7607,0,0,0-.24917,1.50085Z"/><path class="cls-4" d="M38.80381,42.6087A1.52129,1.52129,0,0,0,37.28209,41.087H27.977a2.28125,2.28125,0,0,0-.84836.16359c-1.05191.42038-3.26028,1.303-3.26028,1.303a.761.761,0,0,1-.56492-1.41329s2.20842-.8845,3.26028-1.30489a3.78119,3.78119,0,0,1,1.41328-.272h9.30512a3.04348,3.04348,0,0,1,0,6.087h-3.8043a.76087.76087,0,0,1,0-1.52174h3.8043a1.52129,1.52129,0,0,0,1.52172-1.52174Z"/><path class="cls-4" d="M19.022,35a.76066.76066,0,0,0,.76086.76087H50.21718A.76065.76065,0,0,0,50.978,35a15.9778,15.9778,0,1,0-31.95559,0Zm30.41537-.76087a14.45715,14.45715,0,0,0-28.87417,0Z"/><path class="cls-4" d="M35.76037,19.78261V18.26087a.76086.76086,0,1,0-1.52172,0v1.52174a.76086.76086,0,1,0,1.52172,0Z"/><path class="cls-4" d="M18.26086,35.76063H51.73865a.76087.76087,0,0,0,0-1.52174H18.26086a.76087.76087,0,0,0,0,1.52174Z"/></svg>