<svg id="Layer_1" data-name="Layer 1" xmlns="http://www.w3.org/2000/svg" xmlns:xlink="http://www.w3.org/1999/xlink" viewBox="0 0 70 70"><defs><style>.cls-1{fill:none;}.cls-2,.cls-3{fill:#2e3191;}.cls-3{stroke:#2e3191;stroke-miterlimit:10;}.cls-4{clip-path:url(#clip-path);}</style><clipPath id="clip-path"><rect class="cls-1" x="-352.01949" y="166.50672" width="844.03897" height="405.90522"/></clipPath></defs><path class="cls-2" d="M35,3A32,32,0,1,1,3,35,32.03623,32.03623,0,0,1,35,3m0-3A35,35,0,1,0,70,35,35,35,0,0,0,35,0Z"/><path class="cls-3" d="M52.30514,17.69487A.66015.66015,0,0,0,51.83609,17.5H44.3093a24.44479,24.44479,0,0,0-24.399,24.40527v7.26166l-2.21547,2.20159a.67319.67319,0,0,0-.19486.46922.66035.66035,0,0,0,.19486.46916.68438.68438,0,0,0,.94536.00723l2.201-2.216H28.101A24.44479,24.44479,0,0,0,52.5,25.69282V18.16408A.66052.66052,0,0,0,52.30514,17.69487Zm-1.12577,7.998A23.11415,23.11415,0,0,1,28.101,48.76993H22.16187l3.49276-3.48648h8.14745a.6605.6605,0,0,0,0-1.321H26.97526L32.8639,38.0651h9.35259a.6605.6605,0,1,0,0-1.321H34.19176L40.0804,30.854h6.94948a.66414.66414,0,0,0,0-1.32819H41.401l4.9-4.87962a.669.669,0,0,0-.00718-.93838.662.662,0,0,0-.93818,0l-4.87831,4.89407V22.97148a.664.664,0,0,0-1.32786,0v6.95129L33.26084,35.813V27.78616a.66033.66033,0,1,0-1.32063,0v9.355l-5.89586,5.89021V36.20275a.66032.66032,0,0,0-1.32063,0V44.3523L21.23814,47.846V41.90527A23.11414,23.11414,0,0,1,44.3093,18.82093h6.87007Z"/><g class="cls-4"><image width="1920" height="6970" transform="translate(-518.67987 -2218.7996) scale(0.60086)" xlink:href="../../../Downloads/screencapture-warlbor-2021-12-30-14_25_12.png"/></g></svg>