<svg id="Layer_1" data-name="Layer 1" xmlns="http://www.w3.org/2000/svg" xmlns:xlink="http://www.w3.org/1999/xlink" viewBox="0 0 70 70"><defs><style>.cls-1{fill:none;}.cls-2,.cls-4{fill:#2e3191;}.cls-3{clip-path:url(#clip-path);}.cls-4{stroke:#2e3191;stroke-miterlimit:10;}</style><clipPath id="clip-path"><rect class="cls-1" x="-352.01949" y="87.50017" width="844.03897" height="405.90522"/></clipPath></defs><path class="cls-2" d="M35,3A32,32,0,1,1,3,35,32.03623,32.03623,0,0,1,35,3m0-3A35,35,0,1,0,70,35,35,35,0,0,0,35,0Z"/><g class="cls-3"><image width="1920" height="6970" transform="translate(-518.67987 -2297.80616) scale(0.60086)" xlink:href="../../../Downloads/screencapture-warlbor-2021-12-30-14_25_12.png"/></g><path class="cls-4" d="M26.37079,51.29653a4.38526,4.38526,0,0,1-3.39047-4.02918.546.546,0,0,0-.365-.48671,4.37788,4.37788,0,0,1-2.92839-4.12473,4.30834,4.30834,0,0,1,.51679-2.06307.54529.54529,0,0,0-.12031-.67129,4.36889,4.36889,0,0,1,2.39929-7.629.54687.54687,0,0,0,.48532-.54141c0-.18047.06425-4.40788,4.37481-4.40788s4.37481,4.22728,4.37481,4.40788a.5463.5463,0,0,0,.48668.54278,4.34988,4.34988,0,0,1,2.26258.94335.54681.54681,0,1,0,.68766-.85038,5.44017,5.44017,0,0,0-2.37331-1.11016,6.78675,6.78675,0,0,0-.64254-2.25175,4.96353,4.96353,0,0,0-4.79584-2.77538A4.9598,4.9598,0,0,0,22.54839,29.025a6.74365,6.74365,0,0,0-.64117,2.25038,5.46339,5.46339,0,0,0-2.85045,9.17941,5.46251,5.46251,0,0,0,2.86275,7.22823,5.48594,5.48594,0,0,0,4.21073,4.68123.518.518,0,0,0,.12168.0123.5468.5468,0,0,0,.12032-1.08006Z"/><path class="cls-4" d="M27.3427,38.82819a.54612.54612,0,0,0,.54686-.54688v-.83125l2.5292-2.02341a.54659.54659,0,0,0-.68356-.85311l-1.84561,1.47657V31.71888a.54685.54685,0,1,0-1.0937,0v4.33123l-1.84561-1.47657a.54659.54659,0,0,0-.68356.85311l2.5292,2.02341v.83125a.54614.54614,0,0,0,.54686.54688Z"/><path class="cls-4" d="M26.1286,40.59183a.5425.5425,0,0,0,.11758-.40193.54812.54812,0,0,0-.20234-.36778l-1.0937-.875a.54713.54713,0,0,0-.68356.85448l1.0937.875a.5478.5478,0,0,0,.76832-.08477Z"/><path class="cls-4" d="M40.53152,50.49818a2.3648,2.3648,0,0,1-1.70481.90783,1.75287,1.75287,0,0,1-1.29876-.63437A11.94147,11.94147,0,0,0,39.37356,43.75c0-3.47264-1.00074-5.53417-3.035-6.26041l.298-2.98181a.54675.54675,0,0,0-.54413-.60155h-3.2811a.547.547,0,0,0-.54687.60155l.298,2.98181a3.81469,3.81469,0,0,0-1.66242,1.14159,2.92223,2.92223,0,0,0-1.36988-.35c-2.32547,0-3.82813,2.78906-3.82813,7.10916,0,3.98683,1.92218,7.10917,4.37481,7.10917a2.80077,2.80077,0,0,0,2.04384-.916,3.42454,3.42454,0,0,0,4.66179,0,2.80082,2.80082,0,0,0,2.04384.916,3.37169,3.37169,0,0,0,2.52784-1.27967.54745.54745,0,0,0-.02871-.79568.54913.54913,0,0,0-.79156.07383ZM33.41283,34.99991h2.078l-.22421,2.24216a6.22127,6.22127,0,0,0-1.6255,0ZM30.07706,51.40608c-1.77862,0-3.28111-2.75487-3.28111-6.01577,0-3.54233,1.12377-6.01577,2.73426-6.01577a1.84206,1.84206,0,0,1,.77242.1832,9.57325,9.57325,0,0,0-.77242,4.19193,11.9409,11.9409,0,0,0,1.84561,7.02166,1.75293,1.75293,0,0,1-1.29876.63438Zm4.37481,0c-2.21747,0-3.82813-3.21971-3.82813-7.65621,0-4.81948,1.93447-5.46872,3.82813-5.46872S38.28,38.93057,38.28,43.74987C38.28,48.18645,36.66951,51.40608,34.45187,51.40608Z"/><path class="cls-4" d="M52.19581,20.2918l-3.2811-1.64062a.54533.54533,0,0,0-.65623.12715,24.53624,24.53624,0,0,0-1.96183,2.63181l.18592-3.33317a.547.547,0,0,0-.54684-.577H42.65462a.547.547,0,0,0-.54684.577l.18593,3.33317a24.54455,24.54455,0,0,0-1.96321-2.63181.546.546,0,0,0-.65622-.12715l-3.2811,1.64062a.547.547,0,0,0-.02734.96386,18.12635,18.12635,0,0,1,5.373,5.35392A4.56476,4.56476,0,0,0,38.28,31.17181C38.28,33.19522,40.42226,52.5,44.29551,52.5S50.311,33.1955,50.311,31.17181a4.56416,4.56416,0,0,0-3.46156-4.56223,18.151,18.151,0,0,1,5.37542-5.35392.547.547,0,0,0-.02735-.96386Zm-6.83835-1.69806-.42656,7.67687c-.20644-.01231-.417-.02051-.63571-.02051s-.42929.0082-.63708.02051L43.233,18.59374ZM37.75089,20.8359l2.02883-1.01443a24.15757,24.15757,0,0,1,2.64676,3.97843L42.54,25.84658V25.848a20.397,20.397,0,0,0-4.78919-5.012Zm11.4662,10.3358c0,.25977-.01914.63437-.05468,1.09375H46.48285a.54694.54694,0,1,0,0,1.09374h2.57841c-.15175,1.46289-.40741,3.40156-.74644,5.46872H45.38916a.5488.5488,0,1,0,0,1.09375H48.1316c-.15449.88591-.32264,1.78282-.50447,2.66327-.21874,1.05273-.42929,1.97557-.63981,2.80545h-2.145a.55268.55268,0,1,0,0,1.09374h1.8552c-1.05541,3.78314-1.96457,4.92168-2.402,4.92168-.54685,0-1.81827-1.75954-3.19907-8.20326H42.6549a.5469.5469,0,0,0,0-1.09374H40.86942c-.36913-1.85937-.68492-3.75968-.92963-5.46873,0,0,1.83546-.02906,2.71511,0,.64551,0,.721-1.09374,0-1.09374-.60784-.00747-2.8655,0-2.8655,0a42.66488,42.66488,0,0,1-.41561-4.375,4.05447,4.05447,0,0,1,.14492-1.09374h2.04248a.548.548,0,1,0,0-1.09375H40.056c1.13882-1.48612,3.39048-1.64061,4.23937-1.64061,1.15386,0,4.92148.27617,4.92148,3.82828Zm-3.16627-5.32382.11347-2.04669a24.11855,24.11855,0,0,1,2.64539-3.97843l2.03019,1.01307a20.37935,20.37935,0,0,0-4.78919,5.012Z"/></svg>