<svg id="Layer_1" data-name="Layer 1" xmlns="http://www.w3.org/2000/svg" viewBox="0 0 569.97266 162.60396">
  <defs>
    <style>
      .cls-1 {
        fill: #fff;
      }

      .cls-1, .cls-2 {
        fill-rule: evenodd;
      }

      .cls-2, .cls-3 {
        fill: #fff;
      }
    </style>
  </defs>
  <g>
    <path class="cls-1" d="M117.55421,81.99781H102.22883a41.82212,41.82212,0,0,1,5.662,10.69722v33.80719c0,13.38484-4.327,24.77749-20.927,24.77749H61.17848A13.57308,13.57308,0,0,0,71.225,137.7663l.01465-55.76849H36.12985v69.2819H-.13356V.1591H36.12985V69.44086H71.23967L71.225,13.67245A13.57389,13.57389,0,0,0,61.17848.1591H86.9638c16.59995,0,20.927,11.39245,20.927,24.77729V58.74412a41.83939,41.83939,0,0,1-5.661,10.69674h9.85767q2.73447,6.28172,5.46677,12.557" transform="translate(0.13356 0.44921)"/>
    <path class="cls-2" d="M181.51762,43.3666V33.591h-15.6433V43.3666Zm0,23.2822V55.22322h-15.6433V66.6488Zm13.88113-11.42558V66.6488h17.84678V55.22322Zm0-21.63219V43.3666h17.84678V33.591Zm-55.744,49.54647h41.86283V78.075H146.92581V66.6488h5.50838V55.22322h-13V43.3666h13V33.591h-5.2883V22.05279h86.14988V33.591h-7.271V43.3666h12.11831V55.22322H226.02476V66.6488h6.16976V78.075H195.39875V83.1375H238.5839V94.33494H195.39875v6.15226H181.51762V94.33494H139.65479Zm.73291-79.98139h13.07006V-.44921h15.39V3.15611h41.81369V-.44921H226.052V3.15611h12.11832V14.69435H226.052V19.6461h-15.3906V14.69435H168.84773V19.6461h-15.39V14.69435H140.3877Z" transform="translate(0.13356 0.44921)"/>
    <path class="cls-2" d="M274.22655,22.8853v5.02734h12.67306v7.50312H274.22655v4.984h13.95473v7.974H244.87466v-7.974h15.25383v-4.984H246.15315V27.91264h13.97534V22.8853H246.15315V16.37883h40.74646V22.8853Zm35.45552,1.28162h-5.83782a9.07163,9.07163,0,0,1-3.70221,1.1394h-9.54022V18.89726H295.443s1.99344.28627,3.27526-4.84021h11.96061v3.136h32.03829v6.83145H323.77888v3.88813h18.6534v7.50312h-18.6534v4.98546h6.12327V37.26381h11.81816v5.56237s-.343,4.12777-7.14954,4.12777H291.88349V37.97876h11.53333v2.70873h6.26525V35.41576H292.0032V27.91264h17.67887Zm-49.8805,43.89587h66.41756v4.87987H259.80157Zm0-10.86391h66.41756v4.88035H259.80157Zm0,21.1775h66.41756V82.1533H259.80157ZM246.20986,50.58576h95.06965V81.4459c-.12539,6.9816-4.88305,9.19529-12.23664,8.73983h-7.52106c.3206.96232,1.48664,3.69908,4.39624,3.69908h17.32827v6.60239H314.68705s-3.76966-.15847-9.29-10.30147H282.9007c-5.52035,10.143-9.28559,10.30147-9.28559,10.30147H245.05457V93.88481h17.32829c2.90913,0,4.06947-2.73676,4.39009-3.69908H246.20986Zm-1.35177-36.49261V3.84837h39.7933l2.38746-4.1369h12.78557l1.51986,4.14132L341.41,3.73307l-.11972,11.32077H327.30747V10.16891H258.02285l-.32375,3.92424Z" transform="translate(0.13356 0.44921)"/>
    <path class="cls-2" d="M291.77906,134.7414,286.5467,120.09l-5.32908,14.65136Zm-45.57629,11.46636h7.723a14.92371,14.92371,0,0,0,1.70184-.09419,6.10715,6.10715,0,0,0,3.663-1.33317c.02284-.01735.04474-.03514.06792-.05139a.15014.15014,0,0,1,.01921-.0164.102.102,0,0,0,.01435-.01336c.02221-.01842.04411-.03765.06522-.05592a6.14775,6.14775,0,0,0-3.44339-10.81069,11.816,11.816,0,0,0-2.08814-.17155h-7.723Zm0-17.14206h5.2492q4.16829,0,5.93093-1.30763a4.04041,4.04041,0,0,0,.59473-.54306,5.16178,5.16178,0,0,0-.057-7.38134,3.41247,3.41247,0,0,0-.37529-.33886,4.02142,4.02142,0,0,0-.6105-.40647,5.10058,5.10058,0,0,0-1.81985-.64927,12.37105,12.37105,0,0,0-2.48564-.22559h-6.42656Zm-23.34615,5.6757-5.23-14.65136L212.2952,134.7414Zm100.69681-16.5136a13.91721,13.91721,0,1,1-13.91959,13.91546A13.94337,13.94337,0,0,1,323.55343,118.2278Zm0-5.47087a19.3876,19.3876,0,1,1-19.38936,19.38633A19.426,19.426,0,0,1,323.55343,112.75693ZM210.37924,140.17651l-4.17786,11.231h-5.69507l13.94146-38.57779h6.2509l14.07349,38.57779h-5.89405l-4.07749-11.231Zm42.02133-27.2176c3.9622,0,6.69047.76361,8.8985,2.7845,3.96393,3.62725,4.03987,10.235.049,14.30841l-.07721.08035.00269.00048a11.37419,11.37419,0,0,1,1.776,18.36477,10.51278,10.51278,0,0,1-4.05639,2.27894,22.09232,22.09232,0,0,1-6.01017.63115H240.84046v-38.4486Zm-107.72471,38.4486h-5.3784V112.82972h5.3784v16.45215h15.16231V112.82972H165.22v38.57779h-5.38185v-16.7214H144.67586Zm27.0046-38.57779h5.38248v25.00039c0,6.11572,3.74634,9.17217,7.49286,9.17077,3.74649.0014,7.49252-3.055,7.49252-9.17077V112.82972h5.38281v24.94591c0,5.40833-.9464,7.64078-2.74608,10.00953l-.00219.00173a12.80342,12.80342,0,0,1-20.25665,0l-.00267-.00173c-1.7967-2.36875-2.74308-4.6012-2.74308-10.00953Zm107.61977,27.34679-4.17815,11.231H269.427l13.94084-38.57779h6.25054l14.07349,38.57779h-5.89355l-4.07607-11.231Z" transform="translate(0.13356 0.44921)"/>
    <path class="cls-3" d="M378.103,156.579a1.49769,1.49769,0,0,1-1.49784-1.49889V62.04559a1.49784,1.49784,0,1,1,2.99567,0V155.0801A1.49768,1.49768,0,0,1,378.103,156.579Z" transform="translate(0.13356 0.44921)"/>
    <g>
      <g>
        <path class="cls-3" d="M422.32738,124.52486v9.36426h12.77246v4.18555H422.32738v12.98877h-4.66114V120.33931H437.301v4.18555Z" transform="translate(0.13356 0.44921)"/>
        <path class="cls-3" d="M440.62718,119.98971h4.833v31.07373h-4.833Z" transform="translate(0.13356 0.44921)"/>
        <path class="cls-3" d="M458.53636,151.06344H454.134l-7.63867-20.67237h5.00683l3.45215,10.27149q.43065,1.29418.79883,2.69726.36621,1.40259.582,2.48145h.17285q.30176-1.29492.626-2.61084.32373-1.31616.75488-2.56787l3.49609-10.27149h4.79Z" transform="translate(0.13356 0.44921)"/>
        <path class="cls-3" d="M495.39378,136.30367h4.40235v.38818a15.20921,15.20921,0,0,1-2.93555,8.9336,7.6838,7.6838,0,0,0,1.76953,1.6831,2.89407,2.89407,0,0,0,1.51074.4751,5.972,5.972,0,0,0,.71192-.04346,1.70954,1.70954,0,0,0,.54-.12939v3.88428a5.6383,5.6383,0,0,1-.88477.17236,8.42924,8.42924,0,0,1-1.14355.08643,5.64472,5.64472,0,0,1-2.74121-.66895,10.17852,10.17852,0,0,1-2.6543-2.30908,15.58472,15.58472,0,0,1-3.40918,2.09326,12.75907,12.75907,0,0,1-9.085.25928,8.29958,8.29958,0,0,1-2.95606-1.9209,7.98288,7.98288,0,0,1-1.748-2.76172,9.16034,9.16034,0,0,1-.582-3.23682,7.81253,7.81253,0,0,1,1.7041-5.13574,14.85515,14.85515,0,0,1,4.68261-3.62549q-.43066-.64746-.88476-1.42431a17.48965,17.48965,0,0,1-.84082-1.63965,10.50457,10.50457,0,0,1-.626-1.83447,8.2389,8.2389,0,0,1-.2373-1.96338,7.23386,7.23386,0,0,1,.45312-2.52491,5.845,5.845,0,0,1,1.42383-2.17968,7.24761,7.24761,0,0,1,2.46-1.53174,9.63094,9.63094,0,0,1,3.51758-.583,9.50592,9.50592,0,0,1,2.97754.45313,7.49728,7.49728,0,0,1,2.417,1.29492,5.91863,5.91863,0,0,1,1.61816,2.0498,6.28263,6.28263,0,0,1,.583,2.76221,6.13457,6.13457,0,0,1-.49609,2.50342,7.77757,7.77757,0,0,1-1.38086,2.09277,11.7542,11.7542,0,0,1-2.13672,1.813q-1.25244.84154-2.76172,1.66162l5.4375,7.07764a11.32134,11.32134,0,0,0,.9707-2.63282,13.43635,13.43635,0,0,0,.32422-3.064ZM485.8557,147.913a7.52428,7.52428,0,0,0,3.2373-.66894,8.40462,8.40462,0,0,0,2.2002-1.40283l-6.47364-8.37256a10.427,10.427,0,0,0-2.97753,2.5249,5.023,5.023,0,0,0-1.03614,3.12891,4.94086,4.94086,0,0,0,.34571,1.85547,4.2728,4.2728,0,0,0,1.01464,1.51074,5.08163,5.08163,0,0,0,1.59668,1.03564A5.36707,5.36707,0,0,0,485.8557,147.913Zm-1.29492-20.24121a5.65845,5.65845,0,0,0,.49707,2.43848,16.06958,16.06958,0,0,0,1.40234,2.352,12.69937,12.69937,0,0,0,3.40918-2.20117,3.75574,3.75574,0,0,0,1.209-2.80518,2.90344,2.90344,0,0,0-.82031-1.98486,3.15174,3.15174,0,0,0-2.46-.90674,3.46587,3.46587,0,0,0-1.46777.28076,2.87992,2.87992,0,0,0-.99219.73389,3.11954,3.11954,0,0,0-.583,1.01416A3.30747,3.30747,0,0,0,484.56078,127.67183Z" transform="translate(0.13356 0.44921)"/>
        <path class="cls-3" d="M530.52367,126.11812H518.6555v8.2002H530.092v4.31592H518.6555v12.4292h-5.13574v-29.4336h17.00391Z" transform="translate(0.13356 0.44921)"/>
        <path class="cls-3" d="M546.62035,134.36129q-.47461-.08569-1.03516-.15088a12.39477,12.39477,0,0,0-1.38086-.06494,4.77857,4.77857,0,0,0-3.8418,1.61865,7.32036,7.32036,0,0,0-1.38086,4.855v10.44434h-4.833V130.39107h4.74707v2.93457h.1289a7.05112,7.05112,0,0,1,.90723-1.29492,7.14323,7.14323,0,0,1,1.29394-1.165,6.24936,6.24936,0,0,1,1.64061-.81982,6.10306,6.10306,0,0,1,1.94143-.30225q.605,0,1.01464.02149a4.91091,4.91091,0,0,1,.79786.10791Z" transform="translate(0.13356 0.44921)"/>
        <path class="cls-3" d="M569.8391,150.416q0,5.69679-2.6543,8.71778-2.6543,3.02051-8.26465,3.021a10.71723,10.71723,0,0,1-7.03418-2.20068,9.29509,9.29509,0,0,1-3.28027-5.9126h4.834a5.2133,5.2133,0,0,0,5.69629,4.09961,5.609,5.609,0,0,0,4.53223-1.834,7.97075,7.97075,0,0,0,1.55371-5.28662v-2.58985H565.135a11.1779,11.1779,0,0,1-2.82617,2.22266,8.39511,8.39511,0,0,1-4.208.97119,10.04582,10.04582,0,0,1-3.86328-.75537,9.42477,9.42477,0,0,1-3.21484-2.1792,10.5833,10.5833,0,0,1-2.20117-3.45264,12.10838,12.10838,0,0,1-.82031-4.5747,11.87181,11.87181,0,0,1,.77734-4.35889,10.826,10.826,0,0,1,2.13574-3.45264,9.55117,9.55117,0,0,1,3.25879-2.28759,10.24229,10.24229,0,0,1,4.09961-.81983,8.73723,8.73723,0,0,1,2.39551.30225,8.11535,8.11535,0,0,1,1.89941.79834,8.4452,8.4452,0,0,1,1.4668,1.07861,9.58414,9.58414,0,0,1,1.05762,1.144h.12988v-2.67578h4.61719Zm-16.918-9.75341a7.99476,7.99476,0,0,0,.38867,2.46,6.52175,6.52175,0,0,0,1.165,2.15771,5.86483,5.86483,0,0,0,1.94238,1.53223,6.01251,6.01251,0,0,0,2.71875.58252,5.80631,5.80631,0,0,0,2.374-.4961,6.2307,6.2307,0,0,0,1.96387-1.35986,6.38244,6.38244,0,0,0,1.33789-2.09277,7.1605,7.1605,0,0,0,.4961-2.69727,8.04152,8.04152,0,0,0-.47461-2.82715,6.4745,6.4745,0,0,0-1.29493-2.15771,5.91338,5.91338,0,0,0-1.92089-1.38135,5.76587,5.76587,0,0,0-2.39454-.49609,6.14872,6.14872,0,0,0-2.74121.58252,5.88541,5.88541,0,0,0-1.98437,1.55371,6.54975,6.54975,0,0,0-1.1875,2.17969A7.997,7.997,0,0,0,552.92113,140.66256Z" transform="translate(0.13356 0.44921)"/>
      </g>
      <g>
        <path class="cls-3" d="M422.32738,124.52486v9.36426h12.77246v4.18555H422.32738v12.98877h-4.66114V120.33931H437.301v4.18555Z" transform="translate(0.13356 0.44921)"/>
        <path class="cls-3" d="M440.62718,119.98971h4.833v31.07373h-4.833Z" transform="translate(0.13356 0.44921)"/>
        <path class="cls-3" d="M458.53636,151.06344H454.134l-7.63867-20.67237h5.00683l3.45215,10.27149q.43065,1.29418.79883,2.69726.36621,1.40259.582,2.48145h.17285q.30176-1.29492.626-2.61084.32373-1.31616.75488-2.56787l3.49609-10.27149h4.79Z" transform="translate(0.13356 0.44921)"/>
        <path class="cls-3" d="M495.39378,136.30367h4.40235v.38818a15.20921,15.20921,0,0,1-2.93555,8.9336,7.6838,7.6838,0,0,0,1.76953,1.6831,2.89407,2.89407,0,0,0,1.51074.4751,5.972,5.972,0,0,0,.71192-.04346,1.70954,1.70954,0,0,0,.54-.12939v3.88428a5.6383,5.6383,0,0,1-.88477.17236,8.42924,8.42924,0,0,1-1.14355.08643,5.64472,5.64472,0,0,1-2.74121-.66895,10.17852,10.17852,0,0,1-2.6543-2.30908,15.58472,15.58472,0,0,1-3.40918,2.09326,12.75907,12.75907,0,0,1-9.085.25928,8.29958,8.29958,0,0,1-2.95606-1.9209,7.98288,7.98288,0,0,1-1.748-2.76172,9.16034,9.16034,0,0,1-.582-3.23682,7.81253,7.81253,0,0,1,1.7041-5.13574,14.85515,14.85515,0,0,1,4.68261-3.62549q-.43066-.64746-.88476-1.42431a17.48965,17.48965,0,0,1-.84082-1.63965,10.50457,10.50457,0,0,1-.626-1.83447,8.2389,8.2389,0,0,1-.2373-1.96338,7.23386,7.23386,0,0,1,.45312-2.52491,5.845,5.845,0,0,1,1.42383-2.17968,7.24761,7.24761,0,0,1,2.46-1.53174,9.63094,9.63094,0,0,1,3.51758-.583,9.50592,9.50592,0,0,1,2.97754.45313,7.49728,7.49728,0,0,1,2.417,1.29492,5.91863,5.91863,0,0,1,1.61816,2.0498,6.28263,6.28263,0,0,1,.583,2.76221,6.13457,6.13457,0,0,1-.49609,2.50342,7.77757,7.77757,0,0,1-1.38086,2.09277,11.7542,11.7542,0,0,1-2.13672,1.813q-1.25244.84154-2.76172,1.66162l5.4375,7.07764a11.32134,11.32134,0,0,0,.9707-2.63282,13.43635,13.43635,0,0,0,.32422-3.064ZM485.8557,147.913a7.52428,7.52428,0,0,0,3.2373-.66894,8.40462,8.40462,0,0,0,2.2002-1.40283l-6.47364-8.37256a10.427,10.427,0,0,0-2.97753,2.5249,5.023,5.023,0,0,0-1.03614,3.12891,4.94086,4.94086,0,0,0,.34571,1.85547,4.2728,4.2728,0,0,0,1.01464,1.51074,5.08163,5.08163,0,0,0,1.59668,1.03564A5.36707,5.36707,0,0,0,485.8557,147.913Zm-1.29492-20.24121a5.65845,5.65845,0,0,0,.49707,2.43848,16.06958,16.06958,0,0,0,1.40234,2.352,12.69937,12.69937,0,0,0,3.40918-2.20117,3.75574,3.75574,0,0,0,1.209-2.80518,2.90344,2.90344,0,0,0-.82031-1.98486,3.15174,3.15174,0,0,0-2.46-.90674,3.46587,3.46587,0,0,0-1.46777.28076,2.87992,2.87992,0,0,0-.99219.73389,3.11954,3.11954,0,0,0-.583,1.01416A3.30747,3.30747,0,0,0,484.56078,127.67183Z" transform="translate(0.13356 0.44921)"/>
        <path class="cls-3" d="M530.52367,126.11812H518.6555v8.2002H530.092v4.31592H518.6555v12.4292h-5.13574v-29.4336h17.00391Z" transform="translate(0.13356 0.44921)"/>
        <path class="cls-3" d="M546.62035,134.36129q-.47461-.08569-1.03516-.15088a12.39477,12.39477,0,0,0-1.38086-.06494,4.77857,4.77857,0,0,0-3.8418,1.61865,7.32036,7.32036,0,0,0-1.38086,4.855v10.44434h-4.833V130.39107h4.74707v2.93457h.1289a7.05112,7.05112,0,0,1,.90723-1.29492,7.14323,7.14323,0,0,1,1.29394-1.165,6.24936,6.24936,0,0,1,1.64061-.81982,6.10306,6.10306,0,0,1,1.94143-.30225q.605,0,1.01464.02149a4.91091,4.91091,0,0,1,.79786.10791Z" transform="translate(0.13356 0.44921)"/>
        <path class="cls-3" d="M569.8391,150.416q0,5.69679-2.6543,8.71778-2.6543,3.02051-8.26465,3.021a10.71723,10.71723,0,0,1-7.03418-2.20068,9.29509,9.29509,0,0,1-3.28027-5.9126h4.834a5.2133,5.2133,0,0,0,5.69629,4.09961,5.609,5.609,0,0,0,4.53223-1.834,7.97075,7.97075,0,0,0,1.55371-5.28662v-2.58985H565.135a11.1779,11.1779,0,0,1-2.82617,2.22266,8.39511,8.39511,0,0,1-4.208.97119,10.04582,10.04582,0,0,1-3.86328-.75537,9.42477,9.42477,0,0,1-3.21484-2.1792,10.5833,10.5833,0,0,1-2.20117-3.45264,12.10838,12.10838,0,0,1-.82031-4.5747,11.87181,11.87181,0,0,1,.77734-4.35889,10.826,10.826,0,0,1,2.13574-3.45264,9.55117,9.55117,0,0,1,3.25879-2.28759,10.24229,10.24229,0,0,1,4.09961-.81983,8.73723,8.73723,0,0,1,2.39551.30225,8.11535,8.11535,0,0,1,1.89941.79834,8.4452,8.4452,0,0,1,1.4668,1.07861,9.58414,9.58414,0,0,1,1.05762,1.144h.12988v-2.67578h4.61719Zm-16.918-9.75341a7.99476,7.99476,0,0,0,.38867,2.46,6.52175,6.52175,0,0,0,1.165,2.15771,5.86483,5.86483,0,0,0,1.94238,1.53223,6.01251,6.01251,0,0,0,2.71875.58252,5.80631,5.80631,0,0,0,2.374-.4961,6.2307,6.2307,0,0,0,1.96387-1.35986,6.38244,6.38244,0,0,0,1.33789-2.09277,7.1605,7.1605,0,0,0,.4961-2.69727,8.04152,8.04152,0,0,0-.47461-2.82715,6.4745,6.4745,0,0,0-1.29493-2.15771,5.91338,5.91338,0,0,0-1.92089-1.38135,5.76587,5.76587,0,0,0-2.39454-.49609,6.14872,6.14872,0,0,0-2.74121.58252,5.88541,5.88541,0,0,0-1.98437,1.55371,6.54975,6.54975,0,0,0-1.1875,2.17969A7.997,7.997,0,0,0,552.92113,140.66256Z" transform="translate(0.13356 0.44921)"/>
      </g>
    </g>
    <g>
      <g>
        <path class="cls-3" d="M448.45725,101.04053" transform="translate(0.13356 0.44921)"/>
        <path class="cls-3" d="M423.92043,101.04053" transform="translate(0.13356 0.44921)"/>
        <path class="cls-3" d="M450.7605,62.6319l.43742,3.33875C439.89,67.435,422.74514,68.28072,420.67808,68.37907l-.15324-3.3639c2.1574-.10178,19.02437-.93089,30.23566-2.38327" transform="translate(0.13356 0.44921)"/>
        <polyline class="cls-3" points="454.857 72.325 454.857 75.692 417.917 75.692 417.917 72.325 454.857 72.325"/>
        <polyline class="cls-3" points="437.932 67.361 437.932 82.666 434.565 82.666 434.565 67.361 437.932 67.361"/>
        <path class="cls-3" d="M429.95954,73.35259l3.00824,1.51584c-3.42451,6.48536-14.25326,11.24789-15.88347,11.93519l-1.27168-3.11688c3.28842-1.3769,11.6287-5.64939,14.14691-10.33415" transform="translate(0.13356 0.44921)"/>
        <path class="cls-3" d="M442.295,73.35259c2.52336,4.69562,10.85963,8.96068,14.14634,10.33357l-1.27111,3.11746c-1.62963-.6873-12.45839-5.44926-15.8829-11.93519l3.00767-1.51584" transform="translate(0.13356 0.44921)"/>
        <path class="cls-3" d="M449.59517,83.88344V99.57821a3.50271,3.50271,0,0,1-3.49828,3.49885h-23.7137V83.88344h27.212M425.75109,99.70915h20.47674V87.25077H425.75109V99.70915" transform="translate(0.13356 0.44921)"/>
        <polyline class="cls-3" points="447.841 92.245 447.841 95.613 424.405 95.613 424.405 92.245 447.841 92.245"/>
      </g>
      <g>
        <polyline class="cls-3" points="476.119 63.07 476.119 103.541 472.751 103.541 472.751 63.07 476.119 63.07"/>
        <polyline class="cls-3" points="469.152 66.012 471.69 74.326 468.47 75.31 465.931 66.996 469.152 66.012"/>
        <polyline class="cls-3" points="479.528 65.942 482.704 67.061 479.772 75.38 476.596 74.26 479.528 65.942"/>
        <polyline class="cls-3" points="480.639 77.85 480.639 81.218 466.732 81.218 466.732 77.85 480.639 77.85"/>
        <path class="cls-3" d="M471.28927,82.48881a62.22724,62.22724,0,0,1-2.60283,17.174l-3.22439-.97206a58.87973,58.87973,0,0,0,2.45989-16.202h3.36733" transform="translate(0.13356 0.44921)"/>
        <path class="cls-3" d="M480.465,82.48881a59.63231,59.63231,0,0,0,.64614,8.0641,63.63806,63.63806,0,0,0,1.32314,6.38816l-3.25583.86a67.43013,67.43013,0,0,1-1.39748-6.74668,63.20471,63.20471,0,0,1-.68273-8.56557H480.465" transform="translate(0.13356 0.44921)"/>
        <polyline class="cls-3" points="504.952 65.867 504.952 69.235 483.546 69.235 483.546 65.867 504.952 65.867"/>
        <polyline class="cls-3" points="506.272 77.104 506.272 80.472 482.225 80.472 482.225 77.104 506.272 77.104"/>
        <polyline class="cls-3" points="495.932 63.07 495.932 79.329 492.565 79.329 492.565 63.07 495.932 63.07"/>
        <polyline class="cls-3" points="504.208 71.485 504.208 74.853 484.29 74.853 484.29 71.485 504.208 71.485"/>
        <path class="cls-3" d="M503.82528,82.22636V99.44727a3.6,3.6,0,0,1-3.59605,3.596h-2.98194V99.676h3.18665v-.20413l.02115-13.67289.00057-.20528h-12.6831v17.49823h-3.36733V82.22636h19.42005" transform="translate(0.13356 0.44921)"/>
        <polyline class="cls-3" points="502.071 93.535 502.071 96.903 486.427 96.903 486.427 93.535 502.071 93.535"/>
        <polyline class="cls-3" points="501.724 88.105 501.724 91.473 486.427 91.473 486.427 88.105 501.724 88.105"/>
      </g>
    </g>
  </g>
</svg>
