<svg xmlns="http://www.w3.org/2000/svg" viewBox="0 0 569.97266 162.60396"><defs><style>.cls-1{fill:#e60013;}.cls-1,.cls-2{fill-rule:evenodd;}.cls-2{fill:#191978;}.cls-3{fill:#191978;}</style></defs><g id="Layer_2" data-name="Layer 2"><g id="图层_1" data-name="图层 1"><path class="cls-1" d="M117.68777,82.447H102.3624a41.82274,41.82274,0,0,1,5.662,10.69722v33.8072c0,13.38484-4.32706,24.77748-20.927,24.77748H61.31205a13.57306,13.57306,0,0,0,10.04654-13.5134l.01465-55.7685H36.26341v69.2819H0V.60831H36.26341V69.89007H71.37324l-.01465-55.7684A13.5739,13.5739,0,0,0,61.31205.60831H87.09736c16.6,0,20.927,11.39245,20.927,24.77729V59.19333a41.83956,41.83956,0,0,1-5.661,10.69674H112.221q2.73447,6.28172,5.46677,12.557"/><path class="cls-2" d="M181.65119,43.81581V34.04024h-15.6433v9.77557Zm0,23.28221V55.67243h-15.6433V67.098Zm13.88112-11.42559V67.098h17.84678V55.67243Zm0-21.63219v9.77557h17.84678V34.04024ZM139.78836,83.58671h41.86283V78.52422H147.05937V67.098h5.50838V55.67243h-13V43.81581h13V34.04024h-5.28829V22.502h86.14988V34.04024h-7.271v9.77557h12.11832V55.67243H226.15832V67.098h6.16977v11.4262H195.53231v5.06249h43.18515V94.78415H195.53231v6.15227H181.65119V94.78415H139.78836Zm.73291-79.98138h13.07006V0h15.39V3.60533H210.795V0h15.39059V3.60533H238.3039V15.14356H226.18558v4.95176H210.795V15.14356H168.9813v4.95176h-15.39V15.14356H140.52127Z"/><path class="cls-2" d="M274.36011,23.33451v5.02734h12.67307V35.865H274.36011v4.984h13.95473v7.974H245.00822V40.849h15.25383V35.865H246.28672V28.36185h13.97533V23.33451H246.28672V16.828h40.74646v6.50647Zm35.45552,1.28162h-5.83782a9.07163,9.07163,0,0,1-3.70221,1.1394h-9.54022V19.34647h4.84118s1.99344.28627,3.27525-4.84021h11.96062v3.136h32.03828v6.83144H323.91244v3.88813h18.6534V35.865h-18.6534v4.98546h6.12328V37.713h11.81815V43.2754s-.34295,4.12776-7.14954,4.12776H292.01705V38.428h11.53333V41.1367h6.26525V35.865H292.13677V28.36185h17.67886ZM259.93513,68.512h66.41756v4.87988H259.93513Zm0-10.86391h66.41756v4.88036H259.93513Zm0,21.1775h66.41756v3.77692H259.93513ZM246.34343,51.035h95.06965V81.89511c-.1254,6.9816-4.88306,9.1953-12.23665,8.73983h-7.52105c.32059.96233,1.48663,3.69909,4.39624,3.69909h17.32826v6.60239H314.82062s-3.76967-.15847-9.29-10.30148H283.03427c-5.52035,10.143-9.28559,10.30148-9.28559,10.30148H245.18814V94.334h17.32828c2.90913,0,4.06947-2.73676,4.39009-3.69909H246.34343Zm-1.35177-36.49261V4.29758H284.785l2.38746-4.1369H299.958L301.47784,4.302l40.06568-.11971-.11972,11.32076H327.441V10.61813H258.15641l-.32374,3.92424Z"/><path class="cls-2" d="M291.91262,135.19061l-5.23235-14.65136-5.32909,14.65136ZM246.33633,146.657h7.723a14.92345,14.92345,0,0,0,1.70184-.09419,6.10724,6.10724,0,0,0,3.663-1.33316c.02284-.01736.04474-.03515.06791-.0514a.15165.15165,0,0,1,.01921-.0164.102.102,0,0,0,.01435-.01336c.02221-.01842.04412-.03765.06522-.05592a6.14775,6.14775,0,0,0-3.44339-10.81069,11.816,11.816,0,0,0-2.08814-.17155h-7.723Zm0-17.14205h5.24921q4.16827,0,5.93093-1.30763a4.041,4.041,0,0,0,.59472-.54307,5.16177,5.16177,0,0,0-.057-7.38133,3.41064,3.41064,0,0,0-.37529-.33887,4.02207,4.02207,0,0,0-.61049-.40647,5.1007,5.1007,0,0,0-1.81986-.64927,12.37168,12.37168,0,0,0-2.48563-.22559h-6.42657Zm-23.34614,5.67569-5.23-14.65136-5.33142,14.65136ZM323.687,118.677a13.91721,13.91721,0,1,1-13.91959,13.91545A13.94336,13.94336,0,0,1,323.687,118.677Zm0-5.47088a19.3876,19.3876,0,1,1-19.38936,19.38633A19.42595,19.42595,0,0,1,323.687,113.20614ZM210.51281,140.62572l-4.17787,11.231h-5.69507l13.94146-38.57779h6.25091l14.07349,38.57779h-5.89406l-4.07749-11.231Zm42.02132-27.2176c3.9622,0,6.69047.76361,8.8985,2.78451,3.96393,3.62725,4.03987,10.235.049,14.30841l-.07722.08034.00269.00048a11.37419,11.37419,0,0,1,1.776,18.36477,10.51293,10.51293,0,0,1-4.05639,2.279,22.09271,22.09271,0,0,1-6.01016.63114H240.974v-38.4486Zm-107.72471,38.4486H139.431V113.27893h5.37839v16.45215h15.16231V113.27893h5.38186v38.57779h-5.38186v-16.7214H144.80942Zm27.0046-38.57779h5.38249v25.00039c0,6.11573,3.74634,9.17217,7.49285,9.17078,3.74649.00139,7.49252-3.055,7.49252-9.17078V113.27893h5.38282v24.94592c0,5.40832-.94641,7.64077-2.74609,10.00953l-.00219.00173a12.80343,12.80343,0,0,1-20.25664,0l-.00267-.00173c-1.7967-2.36876-2.74309-4.60121-2.74309-10.00953ZM279.4338,140.62572l-4.17815,11.231h-5.69508l13.94084-38.57779H289.752l14.0735,38.57779H297.9319l-4.07608-11.231Z"/><path class="cls-3" d="M378.23655,157.02821a1.49768,1.49768,0,0,1-1.49783-1.4989V62.4948a1.49783,1.49783,0,1,1,2.99566,0v93.03451A1.49768,1.49768,0,0,1,378.23655,157.02821Z"/><path class="cls-3" d="M422.46094,124.97407v9.36426H435.2334v4.18555H422.46094v12.98877h-4.66113V120.78853h19.63476v4.18554Z"/><path class="cls-3" d="M440.76075,120.43892h4.833v31.07373h-4.833Z"/><path class="cls-3" d="M458.66993,151.51265h-4.40235l-7.63867-20.67237h5.00684l3.45214,10.27149q.43065,1.29418.79883,2.69726.36621,1.40259.582,2.48145h.17286q.30175-1.29492.626-2.61084.32373-1.31616.75489-2.56787l3.49609-10.27149h4.79Z"/><path class="cls-3" d="M495.52735,136.75288h4.40234v.38819a15.20921,15.20921,0,0,1-2.93555,8.93359,7.6839,7.6839,0,0,0,1.76954,1.68311,2.89409,2.89409,0,0,0,1.51074.47509,5.97386,5.97386,0,0,0,.71191-.04345,1.70915,1.70915,0,0,0,.54-.1294v3.88428a5.63811,5.63811,0,0,1-.88476.17236,8.42926,8.42926,0,0,1-1.14356.08643,5.64474,5.64474,0,0,1-2.74121-.66895,10.17868,10.17868,0,0,1-2.6543-2.30908,15.58434,15.58434,0,0,1-3.40918,2.09326,12.75907,12.75907,0,0,1-9.085.25928,8.29945,8.29945,0,0,1-2.95605-1.9209,7.98257,7.98257,0,0,1-1.74805-2.76172,9.16051,9.16051,0,0,1-.582-3.23681,7.81256,7.81256,0,0,1,1.7041-5.13575,14.85506,14.85506,0,0,1,4.68262-3.62548q-.43066-.64747-.88477-1.42432a17.49205,17.49205,0,0,1-.84082-1.63965,10.50344,10.50344,0,0,1-.626-1.83447,8.23834,8.23834,0,0,1-.23731-1.96338,7.23354,7.23354,0,0,1,.45313-2.5249,5.84486,5.84486,0,0,1,1.42382-2.17969,7.24791,7.24791,0,0,1,2.46-1.53174,9.63088,9.63088,0,0,1,3.51757-.583,9.50587,9.50587,0,0,1,2.97754.45313,7.49717,7.49717,0,0,1,2.417,1.29492,5.91887,5.91887,0,0,1,1.61817,2.0498,6.28284,6.28284,0,0,1,.583,2.76221,6.13457,6.13457,0,0,1-.4961,2.50342,7.77733,7.77733,0,0,1-1.38086,2.09277,11.75347,11.75347,0,0,1-2.13672,1.813q-1.25244.84156-2.76171,1.66162l5.4375,7.07764a11.32144,11.32144,0,0,0,.9707-2.63281,13.43644,13.43644,0,0,0,.32422-3.064Zm-9.53809,11.60938a7.52433,7.52433,0,0,0,3.23731-.66895,8.40429,8.40429,0,0,0,2.20019-1.40283l-6.47363-8.37256a10.42708,10.42708,0,0,0-2.97754,2.5249,5.023,5.023,0,0,0-1.03613,3.12891,4.94086,4.94086,0,0,0,.3457,1.85547,4.27269,4.27269,0,0,0,1.01465,1.51074,5.08154,5.08154,0,0,0,1.59668,1.03565A5.36716,5.36716,0,0,0,485.98926,148.36226Zm-1.29492-20.24121a5.65858,5.65858,0,0,0,.49707,2.43847,16.07047,16.07047,0,0,0,1.40234,2.35205,12.69913,12.69913,0,0,0,3.40918-2.20117,3.75569,3.75569,0,0,0,1.209-2.80517,2.90353,2.90353,0,0,0-.82031-1.98487,3.15176,3.15176,0,0,0-2.46-.90674,3.46574,3.46574,0,0,0-1.46777.28077,2.88,2.88,0,0,0-.99219.73388,3.11951,3.11951,0,0,0-.583,1.01416A3.30729,3.30729,0,0,0,484.69434,128.12105Z"/><path class="cls-3" d="M530.65723,126.56734H518.78907v8.20019h11.43652v4.31592H518.78907v12.4292h-5.13575v-29.4336h17.00391Z"/><path class="cls-3" d="M546.75391,134.8105q-.47461-.08569-1.03516-.15088a12.39477,12.39477,0,0,0-1.38086-.06494,4.77855,4.77855,0,0,0-3.84179,1.61865,7.32039,7.32039,0,0,0-1.38086,4.855v10.44434h-4.833V130.84028h4.74707v2.93458h.12891a7.05077,7.05077,0,0,1,.90722-1.29493,7.143,7.143,0,0,1,1.29395-1.165A6.2492,6.2492,0,0,1,543,130.49507a6.103,6.103,0,0,1,1.94142-.30225q.605,0,1.01465.02149a4.91189,4.91189,0,0,1,.79785.10791Z"/><path class="cls-3" d="M569.97266,150.86519q0,5.69677-2.6543,8.71777-2.6543,3.0205-8.26464,3.021a10.71723,10.71723,0,0,1-7.03418-2.20069,9.29512,9.29512,0,0,1-3.28028-5.91259h4.834a5.21328,5.21328,0,0,0,5.69629,4.0996,5.60892,5.60892,0,0,0,4.53222-1.834,7.97068,7.97068,0,0,0,1.55371-5.28662v-2.58984h-.08691a11.178,11.178,0,0,1-2.82617,2.22265,8.39514,8.39514,0,0,1-4.208.97119,10.04575,10.04575,0,0,1-3.86328-.75537,9.42481,9.42481,0,0,1-3.21485-2.1792,10.58331,10.58331,0,0,1-2.20117-3.45263,12.10863,12.10863,0,0,1-.82031-4.57471,11.872,11.872,0,0,1,.77734-4.35889,10.82591,10.82591,0,0,1,2.13575-3.45263,9.55092,9.55092,0,0,1,3.25878-2.2876,10.24232,10.24232,0,0,1,4.09961-.81983,8.73718,8.73718,0,0,1,2.39551.30225,8.11561,8.11561,0,0,1,1.89942.79834A8.44549,8.44549,0,0,1,564.168,132.372a9.58335,9.58335,0,0,1,1.05762,1.14405h.12988v-2.67579h4.61719Zm-16.918-9.75342a7.99476,7.99476,0,0,0,.38867,2.46,6.52189,6.52189,0,0,0,1.165,2.15772,5.865,5.865,0,0,0,1.94239,1.53222,6.01238,6.01238,0,0,0,2.71875.58252,5.8065,5.8065,0,0,0,2.374-.49609,6.23084,6.23084,0,0,0,1.96387-1.35987,6.38277,6.38277,0,0,0,1.33789-2.09277,7.16068,7.16068,0,0,0,.49609-2.69726,8.04121,8.04121,0,0,0-.47461-2.82715,6.47436,6.47436,0,0,0-1.29492-2.15772,5.91361,5.91361,0,0,0-1.9209-1.38135,5.766,5.766,0,0,0-2.39453-.49609,6.14882,6.14882,0,0,0-2.74121.58252,5.88535,5.88535,0,0,0-1.98438,1.55371,6.54975,6.54975,0,0,0-1.1875,2.17969A7.997,7.997,0,0,0,553.05469,141.11177Z"/><path class="cls-3" d="M422.46094,124.97407v9.36426H435.2334v4.18555H422.46094v12.98877h-4.66113V120.78853h19.63476v4.18554Z"/><path class="cls-3" d="M440.76075,120.43892h4.833v31.07373h-4.833Z"/><path class="cls-3" d="M458.66993,151.51265h-4.40235l-7.63867-20.67237h5.00684l3.45214,10.27149q.43065,1.29418.79883,2.69726.36621,1.40259.582,2.48145h.17286q.30175-1.29492.626-2.61084.32373-1.31616.75489-2.56787l3.49609-10.27149h4.79Z"/><path class="cls-3" d="M495.52735,136.75288h4.40234v.38819a15.20921,15.20921,0,0,1-2.93555,8.93359,7.6839,7.6839,0,0,0,1.76954,1.68311,2.89409,2.89409,0,0,0,1.51074.47509,5.97386,5.97386,0,0,0,.71191-.04345,1.70915,1.70915,0,0,0,.54-.1294v3.88428a5.63811,5.63811,0,0,1-.88476.17236,8.42926,8.42926,0,0,1-1.14356.08643,5.64474,5.64474,0,0,1-2.74121-.66895,10.17868,10.17868,0,0,1-2.6543-2.30908,15.58434,15.58434,0,0,1-3.40918,2.09326,12.75907,12.75907,0,0,1-9.085.25928,8.29945,8.29945,0,0,1-2.95605-1.9209,7.98257,7.98257,0,0,1-1.74805-2.76172,9.16051,9.16051,0,0,1-.582-3.23681,7.81256,7.81256,0,0,1,1.7041-5.13575,14.85506,14.85506,0,0,1,4.68262-3.62548q-.43066-.64747-.88477-1.42432a17.49205,17.49205,0,0,1-.84082-1.63965,10.50344,10.50344,0,0,1-.626-1.83447,8.23834,8.23834,0,0,1-.23731-1.96338,7.23354,7.23354,0,0,1,.45313-2.5249,5.84486,5.84486,0,0,1,1.42382-2.17969,7.24791,7.24791,0,0,1,2.46-1.53174,9.63088,9.63088,0,0,1,3.51757-.583,9.50587,9.50587,0,0,1,2.97754.45313,7.49717,7.49717,0,0,1,2.417,1.29492,5.91887,5.91887,0,0,1,1.61817,2.0498,6.28284,6.28284,0,0,1,.583,2.76221,6.13457,6.13457,0,0,1-.4961,2.50342,7.77733,7.77733,0,0,1-1.38086,2.09277,11.75347,11.75347,0,0,1-2.13672,1.813q-1.25244.84156-2.76171,1.66162l5.4375,7.07764a11.32144,11.32144,0,0,0,.9707-2.63281,13.43644,13.43644,0,0,0,.32422-3.064Zm-9.53809,11.60938a7.52433,7.52433,0,0,0,3.23731-.66895,8.40429,8.40429,0,0,0,2.20019-1.40283l-6.47363-8.37256a10.42708,10.42708,0,0,0-2.97754,2.5249,5.023,5.023,0,0,0-1.03613,3.12891,4.94086,4.94086,0,0,0,.3457,1.85547,4.27269,4.27269,0,0,0,1.01465,1.51074,5.08154,5.08154,0,0,0,1.59668,1.03565A5.36716,5.36716,0,0,0,485.98926,148.36226Zm-1.29492-20.24121a5.65858,5.65858,0,0,0,.49707,2.43847,16.07047,16.07047,0,0,0,1.40234,2.35205,12.69913,12.69913,0,0,0,3.40918-2.20117,3.75569,3.75569,0,0,0,1.209-2.80517,2.90353,2.90353,0,0,0-.82031-1.98487,3.15176,3.15176,0,0,0-2.46-.90674,3.46574,3.46574,0,0,0-1.46777.28077,2.88,2.88,0,0,0-.99219.73388,3.11951,3.11951,0,0,0-.583,1.01416A3.30729,3.30729,0,0,0,484.69434,128.12105Z"/><path class="cls-3" d="M530.65723,126.56734H518.78907v8.20019h11.43652v4.31592H518.78907v12.4292h-5.13575v-29.4336h17.00391Z"/><path class="cls-3" d="M546.75391,134.8105q-.47461-.08569-1.03516-.15088a12.39477,12.39477,0,0,0-1.38086-.06494,4.77855,4.77855,0,0,0-3.84179,1.61865,7.32039,7.32039,0,0,0-1.38086,4.855v10.44434h-4.833V130.84028h4.74707v2.93458h.12891a7.05077,7.05077,0,0,1,.90722-1.29493,7.143,7.143,0,0,1,1.29395-1.165A6.2492,6.2492,0,0,1,543,130.49507a6.103,6.103,0,0,1,1.94142-.30225q.605,0,1.01465.02149a4.91189,4.91189,0,0,1,.79785.10791Z"/><path class="cls-3" d="M569.97266,150.86519q0,5.69677-2.6543,8.71777-2.6543,3.0205-8.26464,3.021a10.71723,10.71723,0,0,1-7.03418-2.20069,9.29512,9.29512,0,0,1-3.28028-5.91259h4.834a5.21328,5.21328,0,0,0,5.69629,4.0996,5.60892,5.60892,0,0,0,4.53222-1.834,7.97068,7.97068,0,0,0,1.55371-5.28662v-2.58984h-.08691a11.178,11.178,0,0,1-2.82617,2.22265,8.39514,8.39514,0,0,1-4.208.97119,10.04575,10.04575,0,0,1-3.86328-.75537,9.42481,9.42481,0,0,1-3.21485-2.1792,10.58331,10.58331,0,0,1-2.20117-3.45263,12.10863,12.10863,0,0,1-.82031-4.57471,11.872,11.872,0,0,1,.77734-4.35889,10.82591,10.82591,0,0,1,2.13575-3.45263,9.55092,9.55092,0,0,1,3.25878-2.2876,10.24232,10.24232,0,0,1,4.09961-.81983,8.73718,8.73718,0,0,1,2.39551.30225,8.11561,8.11561,0,0,1,1.89942.79834A8.44549,8.44549,0,0,1,564.168,132.372a9.58335,9.58335,0,0,1,1.05762,1.14405h.12988v-2.67579h4.61719Zm-16.918-9.75342a7.99476,7.99476,0,0,0,.38867,2.46,6.52189,6.52189,0,0,0,1.165,2.15772,5.865,5.865,0,0,0,1.94239,1.53222,6.01238,6.01238,0,0,0,2.71875.58252,5.8065,5.8065,0,0,0,2.374-.49609,6.23084,6.23084,0,0,0,1.96387-1.35987,6.38277,6.38277,0,0,0,1.33789-2.09277,7.16068,7.16068,0,0,0,.49609-2.69726,8.04121,8.04121,0,0,0-.47461-2.82715,6.47436,6.47436,0,0,0-1.29492-2.15772,5.91361,5.91361,0,0,0-1.9209-1.38135,5.766,5.766,0,0,0-2.39453-.49609,6.14882,6.14882,0,0,0-2.74121.58252,5.88535,5.88535,0,0,0-1.98438,1.55371,6.54975,6.54975,0,0,0-1.1875,2.17969A7.997,7.997,0,0,0,553.05469,141.11177Z"/><path class="cls-3" d="M450.89406,63.08112l.43743,3.33874c-11.30793,1.46438-28.45279,2.31007-30.51985,2.40842l-.15324-3.3639c2.1574-.10178,19.02437-.93089,30.23566-2.38326"/><polyline class="cls-3" points="454.857 72.325 454.857 75.692 417.917 75.692 417.917 72.325 454.857 72.325"/><polyline class="cls-3" points="437.932 67.361 437.932 82.666 434.565 82.666 434.565 67.361 437.932 67.361"/><path class="cls-3" d="M430.09311,73.8018l3.00824,1.51584c-3.42451,6.48536-14.25327,11.24789-15.88347,11.93519l-1.27169-3.11688c3.28843-1.3769,11.62871-5.64939,14.14692-10.33415"/><path class="cls-3" d="M442.42856,73.8018c2.52335,4.69563,10.85963,8.96068,14.14634,10.33358l-1.27112,3.11745c-1.62963-.6873-12.45838-5.44926-15.88289-11.93519l3.00767-1.51584"/><path class="cls-3" d="M449.72873,84.33265v15.69477a3.50271,3.50271,0,0,1-3.49827,3.49885H422.51675V84.33265h27.212m-23.84407,15.82572H446.3614V87.7H425.88466v12.45839"/><polyline class="cls-3" points="447.841 92.245 447.841 95.613 424.405 95.613 424.405 92.245 447.841 92.245"/><polyline class="cls-3" points="476.119 63.07 476.119 103.541 472.751 103.541 472.751 63.07 476.119 63.07"/><polyline class="cls-3" points="469.152 66.012 471.69 74.326 468.47 75.31 465.931 66.996 469.152 66.012"/><polyline class="cls-3" points="479.528 65.942 482.704 67.061 479.772 75.38 476.596 74.26 479.528 65.942"/><polyline class="cls-3" points="480.639 77.85 480.639 81.218 466.732 81.218 466.732 77.85 480.639 77.85"/><path class="cls-3" d="M471.42284,82.938a62.22676,62.22676,0,0,1-2.60284,17.174L465.59562,99.14a58.88007,58.88007,0,0,0,2.45988-16.202h3.36734"/><path class="cls-3" d="M480.59852,82.938a59.63258,59.63258,0,0,0,.64613,8.0641,63.638,63.638,0,0,0,1.32315,6.38815l-3.25583.86a67.42491,67.42491,0,0,1-1.39748-6.74667,63.20175,63.20175,0,0,1-.68273-8.56557h3.36676"/><polyline class="cls-3" points="504.952 65.867 504.952 69.235 483.546 69.235 483.546 65.867 504.952 65.867"/><polyline class="cls-3" points="506.272 77.104 506.272 80.472 482.225 80.472 482.225 77.104 506.272 77.104"/><polyline class="cls-3" points="495.932 63.07 495.932 79.329 492.565 79.329 492.565 63.07 495.932 63.07"/><polyline class="cls-3" points="504.208 71.485 504.208 74.853 484.29 74.853 484.29 71.485 504.208 71.485"/><path class="cls-3" d="M503.95885,82.67557V99.89648a3.6,3.6,0,0,1-3.596,3.59605h-2.98194V100.1252h3.18664v-.20413l.02116-13.67289.00057-.20528H487.90612v17.49824h-3.36733V82.67557h19.42006"/><polyline class="cls-3" points="502.071 93.535 502.071 96.903 486.427 96.903 486.427 93.535 502.071 93.535"/><polyline class="cls-3" points="501.724 88.105 501.724 91.473 486.427 91.473 486.427 88.105 501.724 88.105"/></g></g></svg>